<svg aria-hidden="true" style="position: absolute; width: 0; height: 0; overflow: hidden;" version="1.1" xmlns="http://www.w3.org/2000/svg" xmlns:xlink="http://www.w3.org/1999/xlink">
	<defs>
    <symbol id="icon-checkbox-circle-fill" viewBox="0 0 32 32">
      <path fill="#3cbf61" style="fill: var(--color1, #3cbf61)" d="M16 29.333c-7.364 0-13.333-5.969-13.333-13.333s5.969-13.333 13.333-13.333c7.364 0 13.333 5.969 13.333 13.333s-5.969 13.333-13.333 13.333zM14.459 21.98l9.427-9.428-1.885-1.885-7.541 7.543-3.772-3.772-1.885 1.885 5.657 5.657z"></path>
    </symbol>
    <symbol id="icon-red" viewBox="0 0 32 32">
      <path fill="#d80027" style="fill: var(--color1, #d80027)" d="M16 29.333c-7.364 0-13.333-5.969-13.333-13.333s5.969-13.333 13.333-13.333c7.364 0 13.333 5.969 13.333 13.333s-5.969 13.333-13.333 13.333zM14.459 21.98l9.427-9.428-1.885-1.885-7.541 7.543-3.772-3.772-1.885 1.885 5.657 5.657z"></path>
    </symbol>
    <symbol id="icon-x" viewBox="0 0 32 32">
      <path d="M25.707 24.293c0.181 0.181 0.293 0.431 0.293 0.707 0 0.553-0.448 1.001-1.001 1.001-0.276 0-0.526-0.112-0.707-0.293l-8.293-8.294-8.293 8.294c-0.181 0.181-0.431 0.293-0.707 0.293-0.553 0-1.001-0.448-1.001-1.001 0-0.276 0.112-0.526 0.293-0.707v0l8.294-8.293-8.294-8.293c-0.181-0.181-0.293-0.431-0.293-0.707 0-0.553 0.448-1.001 1.001-1.001 0.276 0 0.526 0.112 0.708 0.293l8.292 8.294 8.293-8.294c0.181-0.181 0.431-0.293 0.707-0.293 0.553 0 1.001 0.448 1.001 1.001 0 0.276-0.112 0.526-0.293 0.708v0l-8.294 8.292z"></path>
    </symbol>
    <symbol id="icon-heart-normal" viewBox="0 0 32 32">
      <path fill="var(--sky-blue-color)" d="M16.133 24.733l-0.133 0.133-0.147-0.133c-6.333-5.747-10.52-9.547-10.52-13.4 0-2.667 2-4.667 4.667-4.667 2.053 0 4.053 1.333 4.76 3.147h2.48c0.707-1.813 2.707-3.147 4.76-3.147 2.667 0 4.667 2 4.667 4.667 0 3.853-4.187 7.653-10.533 13.4zM22 4c-2.32 0-4.547 1.080-6 2.773-1.453-1.693-3.68-2.773-6-2.773-4.107 0-7.333 3.213-7.333 7.333 0 5.027 4.533 9.147 11.4 15.373l1.933 1.76 1.933-1.76c6.867-6.227 11.4-10.347 11.4-15.373 0-4.12-3.227-7.333-7.333-7.333z"></path>
    </symbol>
    <symbol id="icon-heart-active" viewBox="0 0 32 32">
      <path d="M16 28.467l-1.933-1.76c-6.867-6.227-11.4-10.347-11.4-15.373 0-4.12 3.227-7.333 7.333-7.333 2.32 0 4.547 1.080 6 2.773 1.453-1.693 3.68-2.773 6-2.773 4.107 0 7.333 3.213 7.333 7.333 0 5.027-4.533 9.147-11.4 15.373z"></path>
    </symbol>
    <symbol id="icon-arrow-top" viewBox="0 0 32 32">
      <path d="M13.88 0l-9.88 12h8v20h4v-20h8z"></path>
    </symbol>
  </defs>
</svg>