<svg aria-hidden="true" style="position: absolute; width: 0; height: 0; overflow: hidden;" version="1.1" xmlns="http://www.w3.org/2000/svg" xmlns:xlink="http://www.w3.org/1999/xlink">
	<defs>
    <symbol id="icon-checkbox-circle-fill" viewBox="0 0 32 32">
      <path fill="#3cbf61" style="fill: var(--color1, #3cbf61)" d="M16 29.333c-7.364 0-13.333-5.969-13.333-13.333s5.969-13.333 13.333-13.333c7.364 0 13.333 5.969 13.333 13.333s-5.969 13.333-13.333 13.333zM14.459 21.98l9.427-9.428-1.885-1.885-7.541 7.543-3.772-3.772-1.885 1.885 5.657 5.657z"></path>
    </symbol>
    <symbol id="icon-red" viewBox="0 0 32 32">
      <path fill="#d80027" style="fill: var(--color1, #d80027)" d="M16 29.333c-7.364 0-13.333-5.969-13.333-13.333s5.969-13.333 13.333-13.333c7.364 0 13.333 5.969 13.333 13.333s-5.969 13.333-13.333 13.333zM14.459 21.98l9.427-9.428-1.885-1.885-7.541 7.543-3.772-3.772-1.885 1.885 5.657 5.657z"></path>
    </symbol>
    <symbol id="icon-x" viewBox="0 0 32 32">
      <path d="M25.707 24.293c0.181 0.181 0.293 0.431 0.293 0.707 0 0.553-0.448 1.001-1.001 1.001-0.276 0-0.526-0.112-0.707-0.293l-8.293-8.294-8.293 8.294c-0.181 0.181-0.431 0.293-0.707 0.293-0.553 0-1.001-0.448-1.001-1.001 0-0.276 0.112-0.526 0.293-0.707v0l8.294-8.293-8.294-8.293c-0.181-0.181-0.293-0.431-0.293-0.707 0-0.553 0.448-1.001 1.001-1.001 0.276 0 0.526 0.112 0.708 0.293l8.292 8.294 8.293-8.294c0.181-0.181 0.431-0.293 0.707-0.293 0.553 0 1.001 0.448 1.001 1.001 0 0.276-0.112 0.526-0.293 0.708v0l-8.294 8.292z"></path>
    </symbol>
  </defs>
</svg>